<?xml version="1.0" encoding="utf-8"?>
<!-- Generator: Adobe Illustrator 25.1.0, SVG Export Plug-In . SVG Version: 6.00 Build 0)  -->
<svg version="1.1" id="图层_1" xmlns="http://www.w3.org/2000/svg" xmlns:xlink="http://www.w3.org/1999/xlink" x="0px" y="0px"
	 viewBox="0 0 200 200" style="enable-background:new 0 0 200 200;" xml:space="preserve">
<style type="text/css">
	.st0{fill:#828282;}
	.st1{fill:#55B4FF;}
	.st2{fill:#00E983;}
	.st3{fill:#FF867F;}
</style>
<path class="st0" d="M101.9,34c0,0,4.2-6.3,25.7,1.4c21.4,7.6,22.8,4.2,25-1.2C156.3,24.9,109.5,7.3,101.9,34z M97,120.5
	c-5,26-30.8,6.4-43.6,21.4l13,13.1c0,0,2.8-6,17.1-5c18.7,1.3,29.4-14.7,29.2-24L97,120.5z M67.6,106.7L49.2,100
	c-9.5,1.2-4.7,12.7-3.3,18.6c3.3,13.7,0.1,15.8,0.1,15.8l2.9,3c3.3-4.1,8.1-6.7,13.4-7C61.1,121.3,57.6,112.3,67.6,106.7L67.6,106.7
	z M56.7,173.1c-1.3,1.2-3.2,1.1-4.4-0.1l-25.9-26.3c-1.2-1.2-1.2-3.1,0-4.2l0.1-0.1c1.2-1.2,3.2-1.1,4.4,0.1l25.9,26.3
	C58,169.9,58,171.8,56.7,173.1C56.7,173,56.7,173,56.7,173.1z M64.2,165.2c-1.3,1.2-3.2,1.1-4.4-0.1l-26-26.3
	c-1.2-1.2-1.1-3.1,0-4.2c0,0,0,0,0.1-0.1c1.2-1.2,3.2-1.1,4.4,0.1l25.9,26.3c1.2,1.1,1.2,3,0,4.2C64.3,165.1,64.3,165.1,64.2,165.2z
	 M32.7,176.4c-0.3,0.4-0.9,0.4-1.3,0.1l-7.8-6.5c-0.4-0.3-0.4-0.9-0.1-1.2l0,0l7.4-8.4c0.3-0.4,0.9-0.4,1.3-0.1l7.8,6.5
	c0.4,0.3,0.4,0.9,0.1,1.2L32.7,176.4z"/>
<path class="st1" d="M140.9,96.8c-13.5,42.3-72.4-12.4-97.7,1C64.4,59.2,113.7,114.4,140.9,96.8z"/>
<path class="st2" d="M159.5,75.5c-13.4,42.4-72.4-12.4-97.7,1.1C83.1,37.9,132.4,93,159.5,75.5z"/>
<path class="st3" d="M178.2,54.1c-13.4,42.3-72.4-12.4-97.7,1.1C101.7,16.5,151,71.7,178.2,54.1z"/>
</svg>
